<svg width="32" height="28" viewBox="0 0 32 28" fill="none" xmlns="http://www.w3.org/2000/svg">
<g id="&#240;&#159;&#166;&#134; icon &#34;react&#34;">
<path id="Vector" d="M16 11.2009C15.6255 11.2009 15.2546 11.2733 14.9086 11.414C14.5626 11.5546 14.2482 11.7607 13.9833 12.0206C13.7185 12.2804 13.5084 12.5889 13.3651 12.9285C13.2218 13.268 13.148 13.6319 13.148 13.9994C13.148 14.3669 13.2218 14.7308 13.3651 15.0703C13.5084 15.4098 13.7185 15.7183 13.9833 15.9782C14.2482 16.238 14.5626 16.4441 14.9086 16.5848C15.2546 16.7254 15.6255 16.7978 16 16.7978C16.3745 16.7978 16.7454 16.7254 17.0914 16.5848C17.4374 16.4441 17.7518 16.238 18.0167 15.9782C18.2815 15.7183 18.4916 15.4098 18.6349 15.0703C18.7782 14.7308 18.852 14.3669 18.852 13.9994C18.852 13.6319 18.7782 13.268 18.6349 12.9285C18.4916 12.5889 18.2815 12.2804 18.0167 12.0206C17.7518 11.7607 17.4374 11.5546 17.0914 11.414C16.7454 11.2733 16.3745 11.2009 16 11.2009ZM8.01067 19.5661L7.38133 19.4091C2.69067 18.2461 0 16.2719 0 13.9941C0 11.7164 2.69067 9.74221 7.38133 8.57914L8.01067 8.42346L8.188 9.03574C8.66318 10.6419 9.27097 12.2075 10.0053 13.7168L10.14 13.9954L10.0053 14.2741C9.26974 15.7829 8.66191 17.3485 8.188 18.9552L8.01067 19.5661ZM7.08933 10.0091C3.524 10.9916 1.336 12.4948 1.336 13.9941C1.336 15.4921 3.524 16.9953 7.08933 17.9792C7.52537 16.6185 8.05183 15.2873 8.66533 13.9941C8.05113 12.7013 7.52465 11.3701 7.08933 10.0091ZM23.9893 19.5661L23.812 18.9525C23.3373 17.3464 22.729 15.7813 21.9933 14.2728L21.8587 13.9941L21.9933 13.7155C22.7288 12.2064 23.337 10.6409 23.812 9.03443L23.9893 8.42215L24.62 8.57784C29.3093 9.7409 32 11.7151 32 13.9941C32 16.2732 29.3093 18.2461 24.62 19.4091L23.9893 19.5661ZM23.3347 13.9941C23.9747 15.3534 24.504 16.6892 24.9107 17.9792C28.4773 16.9953 30.664 15.4921 30.664 13.9941C30.664 12.4948 28.476 10.9929 24.9107 10.0091C24.4752 11.37 23.9487 12.7012 23.3347 13.9941ZM7.08 10.0026L6.90267 9.39159C5.584 4.83091 5.984 1.56281 8 0.421988C9.97733 -0.697904 13.152 0.624772 16.4787 3.97529L16.932 4.43188L16.4787 4.88847C15.2966 6.0942 14.2166 7.39238 13.2493 8.77015L13.0693 9.02265L12.756 9.04882C11.0545 9.18043 9.36678 9.44732 7.70933 9.84687L7.08 10.0026ZM9.608 1.32863C9.25067 1.32863 8.93467 1.40451 8.668 1.55496C7.34267 2.30461 7.108 4.91071 8.02133 8.42738C9.44218 8.11723 10.8821 7.89828 12.332 7.77193C13.1686 6.60479 14.0825 5.49296 15.068 4.44366C12.988 2.45637 11.0187 1.32863 9.608 1.32863ZM22.3933 27.9679C22.392 27.9679 22.392 27.9679 22.3933 27.9679C20.4933 27.9679 18.0533 26.5641 15.5213 24.013L15.068 23.5564L15.5213 23.0998C16.7031 21.8937 17.7827 20.5951 18.7493 19.2168L18.9293 18.9643L19.2413 18.9381C20.9437 18.8073 22.6323 18.5408 24.2907 18.1414L24.92 17.9857L25.0987 18.598C26.4147 23.1561 26.016 26.4255 24 27.565C23.5103 27.8366 22.9558 27.9757 22.3933 27.9679ZM16.932 23.5446C19.012 25.5319 20.9813 26.6596 22.392 26.6596C22.748 26.6596 23.0667 26.5838 23.332 26.4333C24.6573 25.6837 24.8933 23.0763 23.9787 19.5596C22.5575 19.8702 21.117 20.0891 19.6667 20.215C18.8311 21.383 17.9176 22.4953 16.932 23.5446ZM24.92 10.0026L24.2907 9.84687C22.6326 9.44617 20.9438 9.17926 19.2413 9.04882L18.9293 9.02265L18.7493 8.77015C17.7832 7.39195 16.7035 6.09371 15.5213 4.88847L15.068 4.43188L15.5213 3.97529C18.8467 0.626081 22.02 -0.696595 24 0.421988C26.016 1.56281 26.416 4.83091 25.0987 9.39028L24.92 10.0026ZM19.6667 7.77193C21.1893 7.90799 22.636 8.12909 23.9787 8.42738C24.8933 4.91071 24.6573 2.30461 23.332 1.55496C22.0147 0.807932 19.5387 1.95268 16.932 4.44366C17.917 5.493 18.8305 6.60483 19.6667 7.77193ZM9.608 27.9679C9.04506 27.9759 8.49008 27.8369 8 27.565C5.984 26.4255 5.584 23.1574 6.90267 18.598L7.07867 17.9857L7.708 18.1414C9.248 18.5221 10.9467 18.7903 12.7547 18.9381L13.068 18.9643L13.2467 19.2168C14.2141 20.5949 15.2941 21.8935 16.476 23.0998L16.9293 23.5564L16.476 24.013C13.9453 26.5641 11.5053 27.9679 9.608 27.9679ZM8.02133 19.5596C7.10667 23.0763 7.34267 25.6837 8.668 26.4333C9.984 27.1699 12.4587 26.0343 15.068 23.5446C14.0829 22.4945 13.169 21.3823 12.332 20.215C10.8821 20.0892 9.44208 19.8703 8.02133 19.5596ZM16 20.3812C14.9027 20.3812 13.7747 20.3341 12.6453 20.2425L12.332 20.2163L12.152 19.9638C11.5132 19.0632 10.9127 18.137 10.352 17.1877C9.79297 16.2375 9.2743 15.2651 8.79733 14.2728L8.66533 13.9941L8.79733 13.7155C9.27422 12.7232 9.79289 11.7507 10.352 10.8006C10.904 9.86388 11.5107 8.92976 12.152 8.02443L12.332 7.77193L12.6453 7.74577C14.8782 7.55999 17.1231 7.55999 19.356 7.74577L19.668 7.77193L19.8467 8.02443C21.1256 9.82602 22.2482 11.7297 23.2027 13.7155L23.3373 13.9941L23.2027 14.2728C22.2504 16.2597 21.1277 18.1636 19.8467 19.9638L19.668 20.2163L19.356 20.2425C18.2267 20.3341 17.0973 20.3812 16 20.3812ZM13.0707 18.963C15.044 19.1082 16.956 19.1082 18.9307 18.963C20.0331 17.3816 21.0119 15.7206 21.8587 13.9941C21.0134 12.2667 20.0341 10.6055 18.9293 9.02527C16.9792 8.88005 15.0208 8.88005 13.0707 9.02527C11.9654 10.6052 10.9861 12.2664 10.1413 13.9941C10.989 15.7204 11.9682 17.3814 13.0707 18.963Z" fill="#14FFEC"/>
</g>
</svg>
